<?xml version="1.0" standalone="no"?>
<!DOCTYPE svg PUBLIC "-//W3C//DTD SVG 20010904//EN"
 "http://www.w3.org/TR/2001/REC-SVG-20010904/DTD/svg10.dtd">
<svg version="1.0" xmlns="http://www.w3.org/2000/svg"
 width="800.000000pt" height="800.000000pt" viewBox="0 0 800.000000 800.000000"
 preserveAspectRatio="xMidYMid meet">
<metadata>
Created by potrace 1.14, written by Peter Selinger 2001-2017
</metadata>
<g transform="translate(0.000000,800.000000) scale(0.100000,-0.100000)"
fill="#000000" stroke="none">
<path d="M3892 7738 c-33 -97 -129 -370 -140 -399 -6 -15 -8 -30 -5 -33 4 -3
2 -6 -4 -6 -5 0 -10 -6 -10 -12 0 -11 -81 -252 -100 -298 -4 -8 -7 -18 -8 -22
-2 -5 -3 -9 -4 -10 0 -2 -30 -86 -65 -188 -35 -102 -96 -277 -136 -390 -39
-113 -73 -209 -74 -215 -2 -5 -6 -17 -9 -25 -4 -8 -42 -118 -86 -245 -43 -126
-83 -241 -89 -255 -5 -14 -10 -27 -10 -30 -1 -8 -13 -43 -22 -65 -8 -18 -20
-55 -26 -80 -2 -8 -38 -109 -90 -255 -3 -8 -5 -15 -4 -15 0 0 -13 -36 -29 -80
l-29 -80 -83 -1 c-46 -1 -214 -5 -374 -8 -319 -8 -616 -14 -975 -21 -129 -2
-345 -7 -480 -10 -229 -5 -586 -12 -900 -18 l-135 -2 -3 -89 c-3 -103 -11 -91
123 -190 44 -33 85 -65 91 -70 6 -6 22 -18 34 -26 19 -13 40 -28 85 -62 6 -4
29 -23 51 -40 23 -18 52 -40 64 -48 12 -8 28 -20 34 -25 6 -6 56 -44 111 -85
55 -41 102 -77 105 -80 3 -3 21 -17 40 -30 19 -13 42 -31 52 -39 9 -9 56 -45
104 -81 49 -36 140 -104 204 -152 63 -49 120 -91 125 -95 82 -63 222 -169 230
-176 6 -4 42 -32 80 -60 39 -29 77 -58 85 -65 8 -7 47 -36 85 -64 39 -29 75
-56 80 -60 6 -5 37 -28 70 -53 33 -24 67 -50 75 -58 8 -7 31 -24 50 -37 19
-13 37 -27 40 -30 3 -3 37 -29 75 -57 39 -29 75 -56 80 -61 6 -4 38 -29 71
-54 l61 -47 -28 -88 c-15 -48 -58 -189 -94 -313 -37 -124 -70 -232 -73 -240
-3 -8 -6 -17 -6 -20 -1 -3 -5 -11 -9 -18 -5 -6 -6 -12 -3 -12 3 0 -1 -17 -9
-37 -12 -32 -32 -98 -41 -138 -1 -5 -9 -30 -17 -55 -8 -25 -26 -83 -40 -130
-15 -47 -45 -146 -67 -220 -23 -74 -43 -142 -45 -150 -10 -39 -76 -258 -84
-280 -5 -14 -19 -59 -31 -100 -12 -41 -25 -86 -30 -100 -5 -14 -18 -59 -30
-100 -12 -41 -25 -86 -30 -100 -15 -43 -72 -232 -75 -249 -2 -9 -4 -17 -5 -18
-2 -2 -3 -6 -4 -10 -1 -5 -10 -35 -20 -68 -10 -33 -17 -60 -16 -60 1 0 -5 -18
-14 -40 -10 -22 -16 -41 -16 -43 2 -3 -33 -119 -60 -204 l-19 -58 115 0 115 0
82 57 c45 32 84 60 87 63 3 3 23 17 45 30 22 13 42 27 45 30 3 3 31 22 62 43
31 21 63 43 70 50 7 6 47 34 88 62 41 27 77 52 80 55 3 3 12 10 21 15 10 6 37
24 60 41 24 16 76 52 114 79 39 27 72 52 73 57 2 4 8 8 12 8 11 0 135 84 168
113 12 11 22 16 22 11 0 -5 4 -4 8 2 4 6 88 68 187 136 99 69 275 191 390 272
116 80 217 150 225 156 65 45 187 130 195 137 6 4 53 37 105 72 52 36 97 67
100 71 3 3 24 18 48 33 l42 28 113 -78 c61 -42 114 -79 117 -83 3 -3 29 -21
58 -39 30 -19 59 -39 66 -45 6 -6 19 -15 28 -21 35 -22 174 -119 191 -133 9
-8 26 -20 36 -26 17 -9 99 -65 206 -140 16 -12 38 -29 49 -38 11 -10 25 -18
32 -18 7 0 14 -4 16 -8 2 -7 125 -95 177 -127 9 -5 18 -13 21 -16 3 -3 41 -30
85 -59 44 -29 82 -56 85 -59 3 -3 12 -10 21 -16 26 -16 163 -109 176 -120 19
-16 38 -29 55 -40 9 -5 42 -28 75 -51 32 -22 87 -61 123 -85 35 -24 71 -49 80
-56 42 -34 233 -163 240 -163 5 0 10 -4 12 -8 2 -4 48 -39 103 -77 55 -38 102
-73 103 -77 2 -4 9 -8 17 -8 7 0 18 -7 25 -15 10 -12 38 -15 131 -15 l118 0
-19 58 c-31 96 -78 255 -86 287 -4 17 -9 35 -13 40 -3 6 -7 16 -8 23 -7 28
-10 41 -37 127 -15 50 -33 108 -41 130 -8 22 -17 55 -20 74 -3 18 -12 46 -21
62 -8 16 -15 32 -15 36 0 19 -11 59 -20 75 -5 10 -9 27 -9 38 0 11 -4 28 -9
38 -5 9 -15 37 -21 62 -7 25 -15 52 -18 60 -3 8 -7 21 -9 27 -1 7 -5 19 -6 25
-2 7 -7 20 -10 28 -3 8 -18 56 -32 105 -15 50 -34 113 -43 140 -9 28 -17 57
-18 65 -2 8 -16 57 -33 110 -30 93 -74 238 -77 253 -1 4 -3 9 -4 12 -1 3 -3 8
-4 13 -2 9 -33 111 -57 188 -11 33 -21 69 -23 80 -2 10 -10 33 -16 49 -6 17
-13 37 -15 45 -2 8 -11 42 -21 75 -10 33 -19 62 -19 65 -1 3 -4 12 -7 20 -3 8
-13 42 -23 75 -21 72 -31 103 -40 130 -4 11 -9 27 -11 35 -2 8 -10 40 -19 70
-9 30 -22 73 -28 94 -11 43 -14 38 59 93 317 239 349 263 369 280 7 7 16 13
20 13 3 0 16 9 28 21 12 11 110 86 217 167 107 80 200 151 206 157 6 5 22 17
34 25 12 8 57 42 100 75 43 33 91 69 106 80 15 11 32 25 38 30 6 6 27 21 46
35 19 13 49 35 66 49 17 14 41 33 54 41 13 8 31 22 39 30 9 8 50 40 91 70 41
30 77 58 78 62 2 5 10 8 17 8 7 0 15 4 17 9 2 4 89 73 193 152 105 79 195 147
200 151 6 5 55 43 110 84 55 41 113 85 129 97 16 12 35 28 43 35 7 7 13 10 13
5 0 -4 5 -1 10 7 5 8 10 56 10 105 l0 90 -108 1 c-59 1 -242 5 -407 9 -165 3
-390 8 -500 10 -110 3 -317 7 -460 10 -143 3 -354 7 -470 10 -115 2 -358 7
-540 11 -181 4 -360 7 -397 7 -77 0 -70 -7 -117 133 -46 136 -91 266 -101 289
-4 11 -32 90 -61 175 -28 85 -65 191 -81 235 -16 44 -31 88 -33 98 -2 9 -7 22
-10 27 -3 5 -8 18 -10 27 -3 10 -30 90 -61 178 -30 88 -57 165 -58 170 -1 6
-7 19 -13 30 -6 11 -11 25 -12 30 -2 18 -34 110 -41 120 -5 6 -9 13 -9 18 -2
20 -15 63 -22 72 -4 6 -7 12 -7 15 2 10 -35 116 -45 128 -5 6 -7 12 -4 12 3 0
-10 44 -30 98 -19 53 -36 102 -37 107 -2 6 -6 19 -10 30 -17 43 -19 50 -22 60
-2 9 -35 103 -180 520 -20 55 -42 121 -51 148 l-16 47 -87 0 -87 0 -21 -62z"/>
</g>
</svg>
