<svg xmlns="http://www.w3.org/2000/svg" width="128" height="128" viewBox="0 0 360 360" preserveAspectRatio="xMidYMid meet" xmlns:v="https://vecta.io/nano"><path d="M5.5 14.2c-.3.7-.4 77.6-.3 170.8l.3 169.5 111 .3 113.3-.3c1.3-.3 28.1-26.3 60.8-58.9l58.4-58.4.2-110.9-.6-112.1c-.7-.9-36.2-1.2-171.8-1.2L5.5 14.2m296.3 125.3l.2 79-14.3 14.3-14.4 14.3-11.1-11.1-11.2-11.2v-53.4V118h-22.4c-14.3 0-22.7.4-23.1 1s-.7 13.5-.8 28.7c-.1 19.6-.5 27.7-1.3 28-.7.2-13.7-11.9-28.9-26.9-15.3-15-28.5-27.3-29.4-27.3s-8.6 7.1-17.1 15.8l-15.4 15.8 28.4 28.5c22.7 22.7 28.2 28.6 27 29.4-.9.6-13.2 1-29.2 1h-27.7l-.3 22.2c-.2 12.3.1 22.9.6 23.5.7 1 12.7 1.3 54.5 1.3h53.6l9.7 9.7c5.4 5.4 9.8 10.5 9.8 11.5s-1.5 3.2-3.3 5l-14 13.5-10.6 10.3h-78.5C56 309 54 309 53 307.1c-1.6-3-1.4-244.3.2-245.9.9-.9 29.5-1.1 124.8-1l123.5.3.3 79"/></svg>